<svg width="106" height="106" viewBox="0 0 106 106" fill="none" xmlns="http://www.w3.org/2000/svg">
<path d="M48.2503 3.44204C49.7578 -1.14183 56.2422 -1.14182 57.7497 3.44206L68.0503 34.7621C68.5464 36.2705 69.7295 37.4536 71.2379 37.9497L102.558 48.2503C107.142 49.7578 107.142 56.2422 102.558 57.7497L71.2379 68.0503C69.7295 68.5464 68.5464 69.7295 68.0503 71.2379L57.7497 102.558C56.2422 107.142 49.7578 107.142 48.2503 102.558L37.9497 71.2379C37.4536 69.7295 36.2705 68.5464 34.7621 68.0503L3.44204 57.7497C-1.14183 56.2422 -1.14182 49.7578 3.44206 48.2503L34.7621 37.9497C36.2705 37.4536 37.4536 36.2705 37.9497 34.7621L48.2503 3.44204Z" fill="url(#paint0_linear_221_14)"/>
<defs>
<linearGradient id="paint0_linear_221_14" x1="27.691" y1="28.8546" x2="73.3637" y2="75.4" gradientUnits="userSpaceOnUse">
<stop stop-color="#FFE3B8"/>
<stop offset="1" stop-color="#E9A011"/>
</linearGradient>
</defs>
</svg>
